<svg width="111" height="30" viewBox="0 0 111 30" fill="none" xmlns="http://www.w3.org/2000/svg">
<path d="M31.5391 14.8984C31.5391 17.1641 31.1484 19.2083 30.3672 21.0312C29.5859 22.8411 28.5052 24.3776 27.125 25.6406C25.7448 26.9036 24.1107 27.8737 22.2227 28.5508C20.3346 29.2279 18.2904 29.5664 16.0898 29.5664C13.8893 29.5664 11.8451 29.2279 9.95703 28.5508C8.06901 27.8737 6.4349 26.9036 5.05469 25.6406C3.67448 24.3776 2.59375 22.8411 1.8125 21.0312C1.03125 19.2083 0.640625 17.1641 0.640625 14.8984C0.640625 12.5938 1.02474 10.5365 1.79297 8.72656C2.57422 6.90365 3.64844 5.36719 5.01562 4.11719C6.39583 2.85417 8.02995 1.89062 9.91797 1.22656C11.806 0.549479 13.8633 0.210938 16.0898 0.210938C18.3164 0.210938 20.3737 0.549479 22.2617 1.22656C24.1497 1.89062 25.7773 2.85417 27.1445 4.11719C28.5247 5.36719 29.599 6.90365 30.3672 8.72656C31.1484 10.5365 31.5391 12.5938 31.5391 14.8984ZM23.6484 14.8984C23.6484 14.0391 23.6094 13.1602 23.5312 12.2617C23.4531 11.3633 23.3099 10.4909 23.1016 9.64453C22.8932 8.79818 22.6068 8.00391 22.2422 7.26172C21.8906 6.51953 21.4349 5.875 20.875 5.32812C20.3151 4.76823 19.638 4.33203 18.8438 4.01953C18.0625 3.69401 17.1445 3.53125 16.0898 3.53125C15.0221 3.53125 14.0911 3.69401 13.2969 4.01953C12.5026 4.33203 11.8255 4.76172 11.2656 5.30859C10.7057 5.85547 10.25 6.5 9.89844 7.24219C9.54688 7.98438 9.26693 8.77865 9.05859 9.625C8.86328 10.4583 8.72656 11.3307 8.64844 12.2422C8.57031 13.1406 8.53125 14.026 8.53125 14.8984C8.53125 15.7578 8.57031 16.6367 8.64844 17.5352C8.72656 18.4336 8.86979 19.306 9.07812 20.1523C9.28646 20.9857 9.56641 21.7734 9.91797 22.5156C10.2826 23.2578 10.7448 23.9089 11.3047 24.4688C11.8646 25.0156 12.5352 25.4518 13.3164 25.7773C14.1107 26.1029 15.0352 26.2656 16.0898 26.2656C17.1185 26.2656 18.0169 26.1029 18.7852 25.7773C19.5534 25.4388 20.2174 24.9896 20.7773 24.4297C21.3372 23.8568 21.7995 23.1992 22.1641 22.457C22.5417 21.7018 22.8346 20.9076 23.043 20.0742C23.2643 19.2279 23.4206 18.362 23.5117 17.4766C23.6029 16.5911 23.6484 15.7318 23.6484 14.8984ZM41.5 8.02344L39.3125 29H34.5273L39.3125 0.875H46.4023L52.9844 22.3398L59.6445 0.875H66.7344L70.7188 29H62.8281L60.5039 8.57031L55.0156 29H47.9258L41.5 8.02344ZM81.4609 8.02344L79.2734 29H74.4883L79.2734 0.875H86.3633L92.9453 22.3398L99.6055 0.875H106.695L110.68 29H102.789L100.465 8.57031L94.9766 29H87.8867L81.4609 8.02344Z" fill="#010453"/>
</svg>
